# xmcd
#
# Track frame offsets:
#	150
#	46224
#	91303
#	152531
#	199031
#	243750
#
# Disc length: 3917 seconds
# Revision: 0
# Processed by: cddbd v1.5.2PL0 Copyright (c) Steve Scherf et al.
# Submitted via: dBpowerAMP V12.0
#
DISCID=3c0f4b06
DTITLE=Larry Crane - The Goals and Resistance Course Week 1 CD 01
DYEAR=1998
DGENRE=Speech
TTITLE0=The Goals and Resistance Course Week 1 pt 1
TTITLE1=The Goals and Resistance Course Week 1 pt 2
TTITLE2=The Goals and Resistance Course Week 1 pt 3
TTITLE3=The Goals and Resistance Course Week 1 pt 4
TTITLE4=The Goals and Resistance Course Week 1 pt 5
TTITLE5=The Goals and Resistance Course Week 1 pt 6
EXTD=
EXTT0=
EXTT1=
EXTT2=
EXTT3=
EXTT4=
EXTT5=
PLAYORDER=
